<svg width="400" height="400" xmlns="http://www.w3.org/2000/svg">
 <!-- Created with Method Draw - http://github.com/duopixel/Method-Draw/ -->

 <g>
  <title>background</title>
  <rect fill="#fff" id="canvas_background" height="402" width="402" y="-1" x="-1"/>
  <g display="none" overflow="visible" y="0" x="0" height="100%" width="100%" id="canvasGrid">
   <rect fill="url(#gridpattern)" stroke-width="0" y="0" x="0" height="100%" width="100%"/>
  </g>
 </g>
 <g>
  <title>Layer 1</title>
  <metadata transform="matrix(0.4822530496267632,0,0,0.4822530496267632,0,0) " id="svg_23">image/svg+xml</metadata>
  <defs>
   <stop stop-color="#ffffff" id="svg_20"/>
   <stop stop-color="#ff0000" id="svg_19"/>
   <stop stop-color="#ffffff" id="svg_18"/>
   <stop stop-color="#ff0000" id="svg_17"/>
  </defs>
  <g stroke="null" id="svg_25">
   <g stroke="null" transform="matrix(2.02240889846295,0,0,2.02240889846295,-712.0965587377577,-720.2692206991051) " id="svg_14">
    <g stroke="null" id="svg_15">
     <path stroke="#fff" fill="#000" fill-rule="nonzero" id="svg_16" d="m442.725391,550.777027c-10.26421,-0.97289 -15.78442,-2.28944 -25.85323,-6.16589c-11.86643,-4.56852 -20.8441,-10.25821 -30.42208,-19.28027c-15.29838,-14.41047 -24.74656,-31.55106 -29.23021,-53.02852c-1.61563,-7.73918 -1.66964,-27.29448 -0.0966,-35c1.11443,-5.45921 7.79297,-24.5 8.59335,-24.5c0.18476,0 2.13808,3.12578 4.3407,6.94619l4.00478,6.94618l-1.49844,4.80382c-0.82414,2.64209 -2.09059,9.1658 -2.81434,14.49712c-3.88278,28.60164 7.50687,56.09244 30.96169,74.73112c27.5456,21.88948 66.85932,23.23392 96.19207,3.28954c6.33314,-4.30613 16.60682,-13.93439 19.96842,-18.71397l2.10998,-3l-11.12802,-22.5l-11.12802,-22.5l-0.28181,11.14955c-0.25535,10.10256 -0.0441,11.68716 2.25,16.87444c1.39249,3.14868 2.53181,5.89388 2.53181,6.10044c0,0.20656 -3.59763,0.37557 -7.99473,0.37557l-7.99473,0l-9.25527,-18.25l-9.25527,-18.25l-0.27207,18.75l-0.27206,18.75l-6.47794,0l-6.47793,0l0,-37.05226l0,-37.05226l5.19313,0.30226l5.19312,0.30226l7.75171,17.8615c4.26343,9.82382 8.00152,18.11132 8.30687,18.41666c0.30534,0.30535 0.55517,-7.86728 0.55517,-18.1614l0,-18.71657l5.75,0.29991l5.75,0.2999l17.02061,34c9.36133,18.7 19.11245,37.69635 21.66916,42.2141l4.64856,8.21411l-4.14818,6.28589c-4.84888,7.34772 -17.17406,20.05282 -23.8658,24.60145c-12.30085,8.36137 -28.48367,14.39098 -42.07216,15.6758c-12.5672,1.18826 -14.39602,1.22798 -22.25219,0.48333l-0.00005,0zm90.47315,-60.62653l-4.26719,-5.65185l1.86811,-7.59815c2.60269,-10.5859 2.61998,-31.86565 0.0338,-41.59815c-7.959,-29.95197 -33.41796,-54.90361 -62.25357,-61.01305c-9.07171,-1.92204 -25.32074,-1.87289 -34.48159,0.10428c-9.05756,1.95489 -23.58243,8.9008 -32.1062,15.35346c-6.12746,4.63862 -15.01139,13.68152 -16.6774,16.97584c-0.54972,1.087 2.87679,9.06255 10.98963,25.57947l11.7884,24l0.0665,-12.28324c0.0606,-11.19293 -0.15546,-12.72117 -2.43355,-17.21676c-1.375,-2.71343 -2.5,-5.4174 -2.5,-6.00882c0,-0.6997 2.70709,-0.97329 7.75,-0.78324l7.75,0.29206l9.20902,18.5l9.20902,18.5l0.041,-18.75l0.041,-18.75l7,0l7,0l0,36.5l0,36.5l-4.5147,0c-3.91484,0 -4.74526,-0.38497 -6.25,-2.89736c-0.95441,-1.59355 -4.8853,-8.32914 -8.7353,-14.96798c-3.85,-6.63883 -7.3375,-12.08502 -7.75,-12.10263c-0.4125,-0.0176 -0.75,6.49297 -0.75,14.46797l0,14.5l-5.55781,0l-5.55782,0l-14.38889,-29.25c-7.91382,-16.0875 -17.54145,-35.29779 -21.39472,-42.68953l-7.00595,-13.43953l4.48525,-6.28552c9.6995,-13.59262 26.35832,-26.8955 41.04139,-32.77354c17.97187,-7.19463 40.91756,-8.81358 58.87842,-4.1542c10.60167,2.75027 23.46894,8.41081 31.18192,13.71748c7.08378,4.87378 18.82167,16.41733 23.65222,23.26064c12.82713,18.17185 17.88047,34.03087 17.88033,56.1142c-0.00006,10.06155 -0.49844,14.99893 -2.20486,21.84349c-1.95971,7.8605 -5.53061,17.65651 -6.43626,17.65651c-0.18318,0 -2.25329,-2.54333 -4.60025,-5.65185l0.00005,0z"/>
    </g>
   </g>
  </g>
 </g>
</svg>